<?xml version="1.0" encoding="UTF-8" standalone="no"?>
<svg
   version="1.1"
   x="0px"
   y="0px"
   viewBox="0 0 50 62"
   xml:space="preserve"
   id="svg16"
   sodipodi:docname="noun-cards-6432779.svg"
   width="50"
   height="62"
   inkscape:export-filename="noun-cards-6432779.svg"
   inkscape:export-xdpi="96"
   inkscape:export-ydpi="96"
   xmlns:inkscape="http://www.inkscape.org/namespaces/inkscape"
   xmlns:sodipodi="http://sodipodi.sourceforge.net/DTD/sodipodi-0.dtd"
   xmlns="http://www.w3.org/2000/svg"
   xmlns:svg="http://www.w3.org/2000/svg"><defs
     id="defs16" /><sodipodi:namedview
     id="namedview16"
     pagecolor="#ffffff"
     bordercolor="#000000"
     borderopacity="0.25"
     inkscape:showpageshadow="2"
     inkscape:pageopacity="0.0"
     inkscape:pagecheckerboard="0"
     inkscape:deskcolor="#d1d1d1"
     inkscape:export-bgcolor="#ffffff00" /><g
     id="g15"
     transform="translate(-11,-5)"
     style="fill:#808080"><g
       id="g14"
       style="fill:#808080"><path
         d="m 55,29 h -4 v -5 c 0,-1.6543 -1.3457,-3 -3,-3 h -4 v -5 c 0,-1.6543 -1.3457,-3 -3,-3 H 37 V 8 C 37,6.3457 35.6543,5 34,5 H 14 c -1.6543,0 -3,1.3457 -3,3 v 32 c 0,1.6543 1.3457,3 3,3 h 4 v 5 c 0,1.6543 1.3457,3 3,3 h 4 v 5 c 0,1.6543 1.3457,3 3,3 h 4 v 5 c 0,1.6543 1.3457,3 3,3 h 20 c 1.6543,0 3,-1.3457 3,-3 V 32 c 0,-1.6543 -1.3457,-3 -3,-3 z M 13,40 V 8 c 0,-0.55127 0.44873,-1 1,-1 h 20 c 0.55127,0 1,0.44873 1,1 V 31.0498 32.95019 40 c 0,0.55127 -0.44873,1 -1,1 H 31.20996 30.79004 14 c -0.55127,0 -1,-0.44873 -1,-1 z m 7,8 v -5 h 9.89191 C 29.95599,43.65027 30,44.31427 30,45 c 0,0.55225 0.44775,1 1,1 0.55225,0 1,-0.44775 1,-1 0,-0.68573 0.04401,-1.34973 0.10809,-2 H 34 c 1.6543,0 3,-1.3457 3,-3 V 33.52893 C 37.6543,33.18372 38.3244,33 39,33 c 0.55225,0 1,-0.44775 1,-1 0,-0.55225 -0.44775,-1 -1,-1 -0.6756,0 -1.3457,-0.18372 -2,-0.52893 V 15 h 4 c 0.55127,0 1,0.44873 1,1 V 39 40.8999 48 c 0,0.55127 -0.44873,1 -1,1 h -2.56165 c -0.07611,-0.01837 -0.14862,-0.0498 -0.22839,-0.0498 h -0.41992 c -0.07977,0 -0.15228,0.03143 -0.22839,0.0498 H 21 c -0.55127,0 -1,-0.44873 -1,-1 z m 7,8 v -5 h 9.89728 C 36.95807,51.6347 37,52.2821 37,52.9502 c 0,0.55225 0.44775,1 1,1 0.55225,0 1,-0.44775 1,-1 C 39,52.2821 39.04193,51.6347 39.10272,51 H 41 c 1.6543,0 3,-1.3457 3,-3 v -6.521 c 0.65442,-0.34515 1.32452,-0.52881 2,-0.52881 0.55225,0 1,-0.44775 1,-1 0,-0.55225 -0.44775,-1 -1,-1 -0.67517,0 -1.34528,-0.18378 -2,-0.52917 V 23 h 4 c 0.55127,0 1,0.44873 1,1 V 47.0498 48.95019 56 c 0,0.55127 -0.44873,1 -1,1 H 45.20996 44.79004 28 c -0.55127,0 -1,-0.44873 -1,-1 z m 29,8 c 0,0.55127 -0.44873,1 -1,1 H 35 c -0.55127,0 -1,-0.44873 -1,-1 v -5 h 9.89191 C 43.95599,59.65027 44,60.31427 44,61 c 0,0.55225 0.44775,1 1,1 0.55225,0 1,-0.44775 1,-1 0,-0.68573 0.04401,-1.34973 0.10809,-2 H 48 c 1.6543,0 3,-1.3457 3,-3 V 49.52893 C 51.6543,49.18372 52.3244,49 53,49 c 0.55225,0 1,-0.44775 1,-1 0,-0.55225 -0.44775,-1 -1,-1 -0.6756,0 -1.3457,-0.18372 -2,-0.52893 V 31 h 4 c 0.55127,0 1,0.44873 1,1 z"
         id="path1"
         style="fill:#808080" /><path
         d="m 23,37 c 0,0.55225 0.44775,1 1,1 0.55225,0 1,-0.44775 1,-1 0,-6.50488 3.20557,-12 7,-12 0.55225,0 1,-0.44775 1,-1 0,-0.55225 -0.44775,-1 -1,-1 -3.79443,0 -7,-5.49512 -7,-12 0,-0.55225 -0.44775,-1 -1,-1 -0.55225,0 -1,0.44775 -1,1 0,6.50488 -3.20557,12 -7,12 -0.55225,0 -1,0.44775 -1,1 0,0.55225 0.44775,1 1,1 3.79443,0 7,5.49512 7,12 z m 1,-19.48437 c 0.97412,2.94434 2.59863,5.24902 4.59668,6.48438 C 26.59863,25.23535 24.97412,27.54004 24,30.48438 23.02588,27.54004 21.40137,25.23535 19.40332,24 21.40137,22.76465 23.02588,20.45996 24,17.51563 Z"
         id="path2"
         style="fill:#808080" /><path
         d="m 57,21 c 0.55225,0 1,-0.44775 1,-1 v -1 c 0,-0.55225 -0.44775,-1 -1,-1 -0.55225,0 -1,0.44775 -1,1 v 1 c 0,0.55225 0.44775,1 1,1 z"
         id="path3"
         style="fill:#808080" /><path
         d="m 60,21 h -1 c -0.55225,0 -1,0.44775 -1,1 0,0.55225 0.44775,1 1,1 h 1 c 0.55225,0 1,-0.44775 1,-1 0,-0.55225 -0.44775,-1 -1,-1 z"
         id="path4"
         style="fill:#808080" /><path
         d="m 54,23 h 1 c 0.55225,0 1,-0.44775 1,-1 0,-0.55225 -0.44775,-1 -1,-1 h -1 c -0.55225,0 -1,0.44775 -1,1 0,0.55225 0.44775,1 1,1 z"
         id="path5"
         style="fill:#808080" /><path
         d="m 57,23 c -0.55225,0 -1,0.44775 -1,1 v 1 c 0,0.55225 0.44775,1 1,1 0.55225,0 1,-0.44775 1,-1 v -1 c 0,-0.55225 -0.44775,-1 -1,-1 z"
         id="path6"
         style="fill:#808080" /><path
         d="m 18,59 c 0.55225,0 1,-0.44775 1,-1 v -1 c 0,-0.55225 -0.44775,-1 -1,-1 -0.55225,0 -1,0.44775 -1,1 v 1 c 0,0.55225 0.44775,1 1,1 z"
         id="path7"
         style="fill:#808080" /><path
         d="m 21,59 h -1 c -0.55225,0 -1,0.44775 -1,1 0,0.55225 0.44775,1 1,1 h 1 c 0.55225,0 1,-0.44775 1,-1 0,-0.55225 -0.44775,-1 -1,-1 z"
         id="path8"
         style="fill:#808080" /><path
         d="m 16,59 h -1 c -0.55225,0 -1,0.44775 -1,1 0,0.55225 0.44775,1 1,1 h 1 c 0.55225,0 1,-0.44775 1,-1 0,-0.55225 -0.44775,-1 -1,-1 z"
         id="path9"
         style="fill:#808080" /><path
         d="m 18,61 c -0.55225,0 -1,0.44775 -1,1 v 1 c 0,0.55225 0.44775,1 1,1 0.55225,0 1,-0.44775 1,-1 v -1 c 0,-0.55225 -0.44775,-1 -1,-1 z"
         id="path10"
         style="fill:#808080" /><path
         d="m 49,9 c 0.55225,0 1,-0.44775 1,-1 V 7 C 50,6.44775 49.55225,6 49,6 48.44775,6 48,6.44775 48,7 v 1 c 0,0.55225 0.44775,1 1,1 z"
         id="path11"
         style="fill:#808080" /><path
         d="m 51,11 h 1 c 0.55225,0 1,-0.44775 1,-1 0,-0.55225 -0.44775,-1 -1,-1 h -1 c -0.55225,0 -1,0.44775 -1,1 0,0.55225 0.44775,1 1,1 z"
         id="path12"
         style="fill:#808080" /><path
         d="m 46,11 h 1 c 0.55225,0 1,-0.44775 1,-1 0,-0.55225 -0.44775,-1 -1,-1 h -1 c -0.55225,0 -1,0.44775 -1,1 0,0.55225 0.44775,1 1,1 z"
         id="path13"
         style="fill:#808080" /><path
         d="m 49,11 c -0.55225,0 -1,0.44775 -1,1 v 1 c 0,0.55225 0.44775,1 1,1 0.55225,0 1,-0.44775 1,-1 v -1 c 0,-0.55225 -0.44775,-1 -1,-1 z"
         id="path14"
         style="fill:#808080" /></g></g></svg>
